<?xml version="1.0" encoding="UTF-8" standalone="no"?>
<svg
   width="16"
   height="16"
   version="1.1"
   id="svg4"
   sodipodi:docname="password-status-warning-symbolic.svg"
   inkscape:version="1.1 (c68e22c387, 2021-05-23)"
   xmlns:inkscape="http://www.inkscape.org/namespaces/inkscape"
   xmlns:sodipodi="http://sodipodi.sourceforge.net/DTD/sodipodi-0.dtd"
   xmlns="http://www.w3.org/2000/svg"
   xmlns:svg="http://www.w3.org/2000/svg">
  <defs
     id="defs8" />
  <sodipodi:namedview
     id="namedview6"
     pagecolor="#ffffff"
     bordercolor="#666666"
     borderopacity="1.0"
     inkscape:pageshadow="2"
     inkscape:pageopacity="0.0"
     inkscape:pagecheckerboard="0"
     showgrid="false"
     inkscape:zoom="45.254834"
     inkscape:cx="8.0764853"
     inkscape:cy="11.888233"
     inkscape:window-width="1920"
     inkscape:window-height="1136"
     inkscape:window-x="0"
     inkscape:window-y="0"
     inkscape:window-maximized="1"
     inkscape:current-layer="svg4"
     showguides="true"
     inkscape:guide-bbox="true" />
  <path
     d="M 7.906,0.094 C 7.381,0.065 6.868,0.377 6.469,1.063 L 0.219,12.655 C -0.315,13.62 0.267,15 1.313,15 h 13.156 c 0.982,0 1.903,-1.16 1.219,-2.344 L 9.375,1.125 C 8.976,0.479 8.432,0.122 7.906,0.094 Z M 9.001,5.062 V 9 c 0.007,0.528 -1,1 -1,1 0,0 -1.007,-0.472 -1,-1 V 5.062 c 0,-1.585438 2,-1.585438 2,0 z M 8,11 c 1.3333328,0 1.3333328,2 0,2 -1.3333328,0 -1.3333328,-2 0,-2 z"
     style="fill:#000000;fill-opacity:1;marker:none"
     color="#bebebe"
     overflow="visible"
     fill="#474747"
     id="path2"
     sodipodi:nodetypes="cccsscccscccsssss" />
</svg>
