/* XPM */
static char * logo_xpm[] = {
"32 32 526 2",
"  	c None",
". 	c #FFFFFF",
"+ 	c #FEFEFE",
"@ 	c #FEFFFE",
"# 	c #FFFEFF",
"$ 	c #FDFDFD",
"% 	c #FCFCFC",
"& 	c #FAFEF6",
"* 	c #F4FDEC",
"= 	c #F6FEEE",
"- 	c #F6FEED",
"; 	c #F5FEEE",
"> 	c #F6FEEF",
", 	c #F6FDEF",
"' 	c #F5FCEF",
") 	c #F6FDEE",
"! 	c #F5FDEF",
"~ 	c #F6FCEF",
"{ 	c #F7FBF0",
"] 	c #F7FBF1",
"^ 	c #F6FCF0",
"/ 	c #F7FDF2",
"( 	c #F6FDF1",
"_ 	c #F7FDF1",
": 	c #F6FCF1",
"< 	c #F7FCF2",
"[ 	c #FDFEFC",
"} 	c #F8F8F8",
"| 	c #FEFEFD",
"1 	c #E7FCD2",
"2 	c #C0F789",
"3 	c #C5F891",
"4 	c #C3F78F",
"5 	c #C1F58B",
"6 	c #BEF388",
"7 	c #BDF286",
"8 	c #BBF182",
"9 	c #B8F07F",
"0 	c #B6EE7D",
"a 	c #B4ED7A",
"b 	c #B2EB78",
"c 	c #AFE974",
"d 	c #ADE871",
"e 	c #ABE66E",
"f 	c #A9E56B",
"g 	c #A7E469",
"h 	c #A5E267",
"i 	c #B0E57C",
"j 	c #D3F0B4",
"k 	c #F3FAEB",
"l 	c #FDFEFE",
"m 	c #E7FCD3",
"n 	c #C2F88B",
"o 	c #C6F993",
"p 	c #C6F893",
"q 	c #C5F791",
"r 	c #C3F68F",
"s 	c #C0F48A",
"t 	c #BBF183",
"u 	c #BAF082",
"v 	c #B7EE7F",
"w 	c #B5ED7C",
"x 	c #B3EB79",
"y 	c #B1EA76",
"z 	c #AEE873",
"A 	c #ACE670",
"B 	c #A9E56D",
"C 	c #A8E46A",
"D 	c #A5E266",
"E 	c #A2E164",
"F 	c #9FDF60",
"G 	c #99DD56",
"H 	c #A5DF6A",
"I 	c #CFEEB0",
"J 	c #FAFAFA",
"K 	c #C2F88C",
"L 	c #C4F78F",
"M 	c #C1F68B",
"N 	c #C4F392",
"O 	c #C9F19E",
"P 	c #C3F196",
"Q 	c #B8EE82",
"R 	c #B6ED7C",
"S 	c #B3EC79",
"T 	c #B2EA77",
"U 	c #B0EA74",
"V 	c #ACE770",
"W 	c #AAE56E",
"X 	c #A8E56B",
"Y 	c #A6E268",
"Z 	c #A3E265",
"` 	c #A1E061",
" .	c #A0DF5F",
"..	c #9DDD5C",
"+.	c #9ADB58",
"@.	c #99DA57",
"#.	c #BCE692",
"$.	c #F3F3F3",
"%.	c #E6F9D2",
"&.	c #BCF087",
"*.	c #C1F38F",
"=.	c #C1F48F",
"-.	c #C0F48C",
";.	c #BCF286",
">.	c #D8F7B7",
",.	c #F1FAE7",
"'.	c #BDEC8C",
").	c #B2ED78",
"!.	c #B0EA75",
"~.	c #ADE872",
"{.	c #A9E56C",
"].	c #A7E369",
"^.	c #A5E265",
"/.	c #A2E062",
"(.	c #9FDF5F",
"_.	c #9DDE5C",
":.	c #9BDC59",
"<.	c #99DA56",
"[.	c #96D952",
"}.	c #95D852",
"|.	c #C9EAA8",
"1.	c #D9F1C2",
"2.	c #D1EDB4",
"3.	c #B7E589",
"4.	c #B5E583",
"5.	c #B3E67E",
"6.	c #D1EFB2",
"7.	c #EFF9E6",
"8.	c #B7E687",
"9.	c #AEE773",
"0.	c #AFE775",
"a.	c #ABE76D",
"b.	c #A4E364",
"c.	c #A4E265",
"d.	c #A0E05E",
"e.	c #A0E05F",
"f.	c #A0DF61",
"g.	c #9ADC58",
"h.	c #98DA55",
"i.	c #92D64B",
"j.	c #94D750",
"k.	c #90D64C",
"l.	c #A3DC69",
"m.	c #E7F5D9",
"n.	c #FDFEFD",
"o.	c #FEFDFE",
"p.	c #E2F4CF",
"q.	c #B5E384",
"r.	c #B0E17C",
"s.	c #CFECB0",
"t.	c #EFF8E5",
"u.	c #B3E183",
"v.	c #A8E16F",
"w.	c #A9E270",
"x.	c #A6E069",
"y.	c #B9E986",
"z.	c #E7F7D9",
"A.	c #F9FCF4",
"B.	c #EDF7E3",
"C.	c #BCE593",
"D.	c #9DDC5C",
"E.	c #C7EAA3",
"F.	c #F0F9E8",
"G.	c #F6FBF2",
"H.	c #DAEEC6",
"I.	c #9DD862",
"J.	c #8FD548",
"K.	c #8DD347",
"L.	c #CCEBAC",
"M.	c #F4F4F4",
"N.	c #F9F9F9",
"O.	c #FBFBFB",
"P.	c #FEFDFF",
"Q.	c #BDE794",
"R.	c #ADE078",
"S.	c #CDECAE",
"T.	c #EEF8E5",
"U.	c #B2E181",
"V.	c #A6DF6C",
"W.	c #A4DE6A",
"X.	c #BFE895",
"Y.	c #FCFEFB",
"Z.	c #F7FBF4",
"`.	c #F2F9ED",
" +	c #F1F8EA",
".+	c #9FD765",
"++	c #83CE36",
"@+	c #B4E185",
"#+	c #F8FCF3",
"$+	c #FCFBFC",
"%+	c #C2E89C",
"&+	c #ABDE77",
"*+	c #EEF7E5",
"=+	c #AFDF7F",
"-+	c #A2DC68",
";+	c #A8DE72",
">+	c #EEF9E5",
",+	c #FBFDF9",
"'+	c #DFEFCC",
")+	c #87CD3E",
"!+	c #9ED963",
"~+	c #EEF8E4",
"{+	c #FEFEFF",
"]+	c #C1E69B",
"^+	c #A8DC74",
"/+	c #CAEAAB",
"(+	c #EDF7E4",
"_+	c #ADDD7D",
":+	c #9DD960",
"<+	c #BFE598",
"[+	c #F9FCF5",
"}+	c #E0F1D0",
"|+	c #9EDA61",
"1+	c #C1E998",
"2+	c #FBFCF8",
"3+	c #B1E080",
"4+	c #99D859",
"5+	c #E5F5D3",
"6+	c #F2F8EB",
"7+	c #A3D86D",
"8+	c #90D24C",
"9+	c #E9F6DC",
"0+	c #C0E599",
"a+	c #A6D972",
"b+	c #C9E8A9",
"c+	c #EDF6E4",
"d+	c #ACDA7B",
"e+	c #99D65A",
"f+	c #CDEAAF",
"g+	c #FBFDFA",
"h+	c #A6D874",
"i+	c #95D755",
"j+	c #A1DC67",
"k+	c #E2F5CF",
"l+	c #DBEEC7",
"m+	c #94D751",
"n+	c #8FD448",
"o+	c #A4DC6C",
"p+	c #F9FCF6",
"q+	c #B1DD83",
"r+	c #8ACF44",
"s+	c #E8F6DA",
"t+	c #BEE497",
"u+	c #A4D76F",
"v+	c #C8E7A8",
"w+	c #EDF6E3",
"x+	c #A9D979",
"y+	c #96D457",
"z+	c #CEEBB1",
"A+	c #FCFDFA",
"B+	c #A1D46A",
"C+	c #95D555",
"D+	c #9FD863",
"E+	c #DDF1C8",
"F+	c #D5ECBD",
"G+	c #94D650",
"H+	c #8ED347",
"I+	c #A2DB6A",
"J+	c #FAFCF7",
"K+	c #B2DE86",
"L+	c #8ACF43",
"M+	c #BDE395",
"N+	c #A2D66D",
"O+	c #C7E6A6",
"P+	c #ECF6E3",
"Q+	c #A8D777",
"R+	c #93D155",
"S+	c #CCEAAF",
"T+	c #9DD369",
"U+	c #93D353",
"V+	c #9CD661",
"W+	c #DCF1C7",
"X+	c #D4EBBD",
"Y+	c #92D44E",
"Z+	c #8CD244",
"`+	c #A1DA68",
" @	c #89CF43",
".@	c #BAE194",
"+@	c #9FD46A",
"@@	c #C6E5A5",
"#@	c #ECF5E3",
"$@	c #A5D575",
"%@	c #91CF52",
"&@	c #CBE9AE",
"*@	c #9CD167",
"=@	c #91D150",
"-@	c #9AD55F",
";@	c #DBF0C7",
">@	c #D4EBBC",
",@	c #90D34C",
"'@	c #8BD143",
")@	c #A1D966",
"!@	c #BAE092",
"~@	c #9ED168",
"{@	c #C5E4A4",
"]@	c #ECF5E2",
"^@	c #A4D473",
"/@	c #8FCD4F",
"(@	c #CAE7AD",
"_@	c #9AD064",
":@	c #8FCF4E",
"<@	c #98D35D",
"[@	c #DBF0C6",
"}@	c #D3EBBB",
"|@	c #8ED249",
"1@	c #89D040",
"2@	c #9ED863",
"3@	c #FAFCF8",
"4@	c #B3DE86",
"5@	c #B8DF91",
"6@	c #9BD066",
"7@	c #C3E2A3",
"8@	c #EBF5E2",
"9@	c #A2D371",
"0@	c #8DCC4D",
"a@	c #CAE6AD",
"b@	c #99CE61",
"c@	c #8DCD4C",
"d@	c #96D25B",
"e@	c #DAEEC5",
"f@	c #D2EBBA",
"g@	c #8DD248",
"h@	c #87CE3E",
"i@	c #9ED761",
"j@	c #B6DD8F",
"k@	c #99CD64",
"l@	c #C1E1A2",
"m@	c #A0D170",
"n@	c #8BCA4C",
"o@	c #C1E2A0",
"p@	c #EFF7E6",
"q@	c #96CC5E",
"r@	c #8BCB4A",
"s@	c #93CF57",
"t@	c #D0EAB7",
"u@	c #FAFBF7",
"v@	c #C9E6AB",
"w@	c #8AD044",
"x@	c #86CD3C",
"y@	c #9BD65F",
"z@	c #F3F9ED",
"A@	c #B0DD83",
"B@	c #B5DC8E",
"C@	c #97CC61",
"D@	c #C0E0A0",
"E@	c #EBF4E1",
"F@	c #9FCF6E",
"G@	c #90CB53",
"H@	c #98CE61",
"I@	c #9DD168",
"J@	c #9DD167",
"K@	c #8ECA51",
"L@	c #92CE55",
"M@	c #96CF5C",
"N@	c #90CE4F",
"O@	c #87CF3F",
"P@	c #85CD3C",
"Q@	c #94D256",
"R@	c #D4E9C1",
"S@	c #CEE6B6",
"T@	c #A1D66D",
"U@	c #8CD147",
"V@	c #B7DC92",
"W@	c #95C960",
"X@	c #BCDD9A",
"Y@	c #EFF6E8",
"Z@	c #A7D27A",
"`@	c #8DC850",
" #	c #8FCA54",
".#	c #8EC951",
"+#	c #8DC84F",
"@#	c #8AC94C",
"##	c #89C849",
"$#	c #88C747",
"%#	c #86C644",
"&#	c #84C641",
"*#	c #82C73E",
"=#	c #85CC3D",
"-#	c #97D359",
";#	c #D0E6BB",
">#	c #C8E4AE",
",#	c #9ED569",
"'#	c #8DD148",
")#	c #BFE09D",
"!#	c #95C95F",
"~#	c #ADD583",
"{#	c #FCFDFB",
"]#	c #C5E1A9",
"^#	c #8BC54F",
"/#	c #8CC650",
"(#	c #8BC74D",
"_#	c #8AC74C",
":#	c #88C749",
"<#	c #87C645",
"[#	c #85C543",
"}#	c #83C640",
"|#	c #81C53D",
"1#	c #80C43B",
"2#	c #81C739",
"3#	c #B6DE8E",
"4#	c #CDE5B8",
"5#	c #C4E1A7",
"6#	c #94D158",
"7#	c #8ED24A",
"8#	c #D1E9B9",
"9#	c #95C861",
"0#	c #9CCC69",
"a#	c #F0F7E9",
"b#	c #F3F8EE",
"c#	c #BCDC9B",
"d#	c #99CC67",
"e#	c #97CB63",
"f#	c #96CC61",
"g#	c #90C957",
"h#	c #8EC853",
"i#	c #8CC751",
"j#	c #8BC74E",
"k#	c #89C64C",
"l#	c #88C74A",
"m#	c #94CD5A",
"n#	c #B7DD92",
"o#	c #CBE5B2",
"p#	c #CBE5B3",
"q#	c #BADE97",
"r#	c #83CB3A",
"s#	c #91D34E",
"t#	c #EBF6E0",
"u#	c #9ACB68",
"v#	c #92C65A",
"w#	c #C0DFA2",
"x#	c #CFE7B9",
"y#	c #C9E3B0",
"z#	c #CAE4B1",
"A#	c #C9E4B2",
"B#	c #CAE3B1",
"C#	c #CBE4B2",
"D#	c #C6E3AB",
"E#	c #98D25D",
"F#	c #80CC33",
"G#	c #92D350",
"H#	c #BCDE9A",
"I#	c #89C051",
"J#	c #90C55B",
"K#	c #CBE3B2",
"L#	c #D1E8BB",
"M#	c #CAE4B2",
"N#	c #CCE5B4",
"O#	c #CBE4B3",
"P#	c #CDE6B6",
"Q#	c #C4E1A9",
"R#	c #9FD56A",
"S#	c #84CE3A",
"T#	c #83CD38",
"U#	c #91D34F",
"V#	c #A6D279",
"W#	c #85BE4C",
"X#	c #8CC254",
"Y#	c #A3CF76",
"Z#	c #DBEBC9",
"`#	c #DAECC9",
" $	c #DCECCB",
".$	c #BBDC9A",
"+$	c #B7DA94",
"@$	c #B8DB94",
"#$	c #B8DB93",
"$$	c #B4DA8E",
"%$	c #A3D272",
"&$	c #8BC84B",
"*$	c #81C73C",
"=$	c #85CE3D",
"-$	c #F3F9EE",
";$	c #9ECD70",
">$	c #86BF4D",
",$	c #86BF4B",
"'$	c #83BE47",
")$	c #80BE43",
"!$	c #7FBD40",
"~$	c #7DBC3E",
"{$	c #7CBD3C",
"]$	c #7BBC39",
"^$	c #7BBD38",
"/$	c #7CBE39",
"($	c #7DBF39",
"_$	c #7CC038",
":$	c #7DC139",
"<$	c #7FC23A",
"[$	c #81C43C",
"}$	c #80C53C",
"|$	c #82C73C",
"1$	c #82CB37",
"2$	c #EAF6DE",
"3$	c #F4F9EE",
"4$	c #B9DB97",
"5$	c #8DC357",
"6$	c #7EBB41",
"7$	c #7DBA40",
"8$	c #7EBB40",
"9$	c #7CBB3E",
"0$	c #7BBA3A",
"a$	c #7ABB38",
"b$	c #7CBD39",
"c$	c #7CC039",
"d$	c #7DC039",
"e$	c #7DC239",
"f$	c #7EC339",
"g$	c #7EC338",
"h$	c #7CC434",
"i$	c #B8E18F",
"j$	c #FCFDFC",
"k$	c #EEF6E7",
"l$	c #CEE6B7",
"m$	c #AFD589",
"n$	c #9DCC6E",
"o$	c #99CA67",
"p$	c #99CA65",
"q$	c #99CB66",
"r$	c #98CC66",
"s$	c #99CC66",
"t$	c #9ACD65",
"u$	c #99CE65",
"v$	c #9ACE65",
"w$	c #9BCF64",
"x$	c #9ACF64",
"y$	c #A0D36D",
"z$	c #C7E5A9",
"A$	c #F5FAF0",
". . . . . . . . . . . . . . . . . . . . . +                     ",
"@ + # . . . . . . . . . . . . . . . . . . . + + $ %             ",
"# + & * = - ; > , ' ) ! ~ { ] ^ / ( _ : < [ . . + + $ }         ",
". | 1 2 3 3 3 4 5 6 7 8 9 0 a b c d e f g h i j k l + %         ",
". | m n o p q r s 7 t u v w x y z A B C D E F G H I # # J       ",
". | m K o 3 L M N O P Q R S T U V W X Y Z `  ...+.@.#.# . $.    ",
". + %.&.*.=.-.;.>.. ,.'.).b !.~.e {.].^./.(._.:.<.[.}.|.. +     ",
". @ ,.1.2.3.4.5.6.. 7.8.9.0.z a.b.c.d.e.f.g.h.[.i.j.k.l.m.#     ",
"# + n.o.# p.q.r.s.. t.u.v.w.x.y.z.A.B.C.D.E.F.G.H.I.J.K.L.. M.  ",
"% N.O.O.P.. Q.R.S.. T.U.V.W.X.Y.. . . Z.`.[ . . #  +.+++@+#+$+  ",
"        $ . %+&+L.. *+=+-+;+>++ + ,+. . . . Y.,+. . '+)+!+~+o.  ",
"        {+# ]+^+/+. (+_+:+<+[+. }+|+1+. . 2+3+4+5+. 6+7+8+9+#   ",
"        + + 0+a+b+. c+d+e+f+g+. h+i+j+k+. l+m+n+o+. p+q+r+s+#   ",
"        + + t+u+v+. w+x+y+z+A+. B+C+D+E+. F+G+H+I+. J+K+L+s+#   ",
"        + + M+N+O+. P+Q+R+S+A+. T+U+V+W+. X+Y+Z+`+. J+K+ @s+#   ",
"        + {+.@+@@@. #@$@%@&@A+. *@=@-@;@. >@,@'@)@. J+K+ @s+#   ",
"        + # !@~@{@. ]@^@/@(@A+. _@:@<@[@. }@|@1@2@. 3@4@ @s+#   ",
"        + . 5@6@7@. 8@9@0@a@A+. b@c@d@e@. f@g@h@i@. 3@4@ @s+#   ",
"        + . j@k@l@. 8@m@n@o@p@G.q@r@s@t@u@v@w@x@y@% z@A@r+s+#   ",
"        + + B@C@D@. E@F@G@H@I@J@K@n@r@L@M@N@O@P@Q@R@S@T@U@s+#   ",
"        + . V@W@X@. Y@Z@`@ #.#+#@###$#%#&#*#=#P@-#;#>#,#'#s+#   ",
"        + . )#!#~#. {#]#^#/#(#_#:#<#[#}#|#1#2#P@3#4#5#6#7#s+#   ",
"        + . 8#9#0#a#. b#c#d#e#f#g#h#i#j#k#l#m#n#o#p#q#r#s#s+#   ",
"        . . t#u#v#w#. . . {+P.. x#y#z#z#A#B#C#o#o#D#E#F#G#s+#   ",
"        $ + . H#I#J#K#g+. . . . L#M#N#N#N#N#O#P#Q#R#S#T#U#s+#   ",
"          $ . A+V#W#X#Y#z#Z#`# $.$+$@$#$@$@$$$%$&$*$=$T#U#s+#   ",
"            $ . -$;$>$,$'$)$!$~${$]$^$/$($_$:$<$[$}$|$1$y+2$#   ",
"            $ + + 3$4$5$6$7$8$9$0$a$]$b$/$($c$d$e$f$g$h$i$p++   ",
"              J + . j$k$l$m$n$o$p$q$r$s$t$u$v$w$x$x$y$z$A${++   ",
"                  $ + . . . . . . . . . . . . . . . . . + + +   ",
"                      O.J $ + . . . . . . . . . . . . . . . .   ",
"                                                                "};
